<svg width="545" height="177" viewBox="0 0 545 177" fill="none" xmlns="http://www.w3.org/2000/svg">
<rect width="545" height="177" fill="#008080"/>
<path d="M115.391 71V57.9141H116.844V63.7344H122.664V57.9141H124.117V71H122.664V65.1875H116.844V71H115.391ZM127.031 71V62.2734H128.484V71H127.031ZM127.031 59.3672V57.9141H128.484V59.3672H127.031ZM129.938 72.4531V71H131.391V72.4531H129.938ZM131.391 71V69.5469H132.844V71H131.391ZM138.656 71V57.9141H140.109V71H138.656ZM143.016 62.2734V57.9141H144.469V62.2734H143.016ZM150.281 71V63.7344H151.734V71H150.281ZM154.648 71V63.7344H156.102V71H154.648ZM145.922 71V62.2734H150.281V63.7344H147.375V71H145.922ZM151.734 63.7344V62.2734H154.648V63.7344H151.734ZM163.375 71V69.5469H169.195V71H163.375ZM161.922 69.5469V57.9141H163.375V69.5469H161.922ZM169.195 69.5469V57.9141H170.648V69.5469H169.195ZM173.562 71V62.2734H176.469V63.7344H175.016V71H173.562ZM177.922 69.5469V66.6406H179.375V69.5469H177.922ZM179.375 71V69.5469H183.734V66.6406H179.375V65.1875H183.734V63.7344H185.195V71H179.375ZM179.375 63.7344V62.2734H183.734V63.7344H179.375ZM192.469 71V63.7344H193.93V71H192.469ZM186.656 71V62.2734H188.109V63.7344H189.562V65.1875H188.109V71H186.656ZM189.562 63.7344V62.2734H192.469V63.7344H189.562ZM195.391 71V62.2734H196.844V71H195.391ZM195.391 59.3672V57.9141H196.844V59.3672H195.391ZM198.297 72.4531V71H199.75V72.4531H198.297ZM199.75 71V69.5469H201.203V71H199.75ZM207.016 69.5469V66.6406H208.469V69.5469H207.016ZM208.469 71V69.5469H212.828V66.6406H208.469V65.1875H212.828V63.7344H214.289V71H208.469ZM208.469 63.7344V62.2734H212.828V63.7344H208.469ZM220.109 71V59.3672H221.562V62.2734H223.016V63.7344H221.562V71H220.109ZM221.562 59.3672V57.9141H223.016V59.3672H221.562ZM224.469 71V62.2734H227.375V63.7344H225.922V71H224.469ZM230.281 71V69.5469H234.641V71H230.281ZM228.828 69.5469V63.7344H230.281V69.5469H228.828ZM234.641 69.5469V63.7344H236.102V69.5469H234.641ZM230.281 63.7344V62.2734H234.641V63.7344H230.281ZM243.375 71V63.7344H244.836V71H243.375ZM237.562 71V62.2734H239.016V63.7344H240.469V65.1875H239.016V71H237.562ZM240.469 63.7344V62.2734H243.375V63.7344H240.469ZM247.75 71V69.5469H249.203V71H247.75ZM246.297 69.5469V59.3672H247.75V62.2734H249.203V63.7344H247.75V69.5469H246.297ZM252.109 71V69.5469H256.469V71H252.109ZM256.469 69.5469V68.0938H257.93V69.5469H256.469ZM250.656 69.5469V63.7344H252.109V65.1875H256.469V63.7344H257.93V66.6406H252.109V69.5469H250.656ZM252.109 63.7344V62.2734H256.469V63.7344H252.109ZM265.203 71V63.7344H266.664V71H265.203ZM259.391 71V62.2734H260.844V63.7344H262.297V65.1875H260.844V71H259.391ZM262.297 63.7344V62.2734H265.203V63.7344H262.297ZM268.125 69.5469V63.7344H269.578V69.5469H268.125ZM269.578 71V69.5469H273.938V63.7344H269.578V62.2734H273.938V57.9141H275.398V71H269.578ZM281.219 69.5469V63.7344H282.672V69.5469H281.219ZM282.672 71V69.5469H287.031V63.7344H282.672V62.2734H287.031V57.9141H288.492V71H282.672ZM291.406 71V69.5469H295.766V71H291.406ZM295.766 69.5469V68.0938H297.227V69.5469H295.766ZM289.953 69.5469V63.7344H291.406V65.1875H295.766V63.7344H297.227V66.6406H291.406V69.5469H289.953ZM291.406 63.7344V62.2734H295.766V63.7344H291.406ZM301.594 71V68.0938H303.047V71H301.594ZM300.141 68.0938V65.1875H301.594V68.0938H300.141ZM303.047 68.0938V65.1875H304.5V68.0938H303.047ZM298.688 65.1875V62.2734H300.141V65.1875H298.688ZM304.5 65.1875V62.2734H305.961V65.1875H304.5ZM308.875 71V69.5469H313.234V71H308.875ZM313.234 69.5469V68.0938H314.695V69.5469H313.234ZM307.422 69.5469V63.7344H308.875V65.1875H313.234V63.7344H314.695V66.6406H308.875V69.5469H307.422ZM308.875 63.7344V62.2734H313.234V63.7344H308.875ZM316.156 71V57.9141H317.609V71H316.156ZM320.516 71V69.5469H324.875V71H320.516ZM319.062 69.5469V63.7344H320.516V69.5469H319.062ZM324.875 69.5469V63.7344H326.336V69.5469H324.875ZM320.516 63.7344V62.2734H324.875V63.7344H320.516ZM333.609 69.5469V63.7344H335.07V69.5469H333.609ZM327.797 73.9062V62.2734H333.609V63.7344H329.25V69.5469H333.609V71H329.25V73.9062H327.797ZM337.984 71V69.5469H342.344V71H337.984ZM342.344 69.5469V68.0938H343.805V69.5469H342.344ZM336.531 69.5469V63.7344H337.984V65.1875H342.344V63.7344H343.805V66.6406H337.984V69.5469H336.531ZM337.984 63.7344V62.2734H342.344V63.7344H337.984ZM345.266 71V62.2734H348.172V63.7344H346.719V71H345.266ZM349.625 72.4531V71H351.078V72.4531H349.625ZM351.078 71V69.5469H352.531V71H351.078ZM358.344 69.5469V66.6406H359.797V69.5469H358.344ZM359.797 71V69.5469H364.156V66.6406H359.797V65.1875H364.156V63.7344H365.617V71H359.797ZM359.797 63.7344V62.2734H364.156V63.7344H359.797ZM372.891 71V69.5469H374.344V71H372.891ZM371.438 69.5469V59.3672H372.891V62.2734H374.344V63.7344H372.891V69.5469H371.438ZM375.797 71V62.2734H377.25V71H375.797ZM375.797 59.3672V57.9141H377.25V59.3672H375.797ZM384.516 71V63.7344H385.977V71H384.516ZM378.703 71V62.2734H380.156V63.7344H381.609V65.1875H380.156V71H378.703ZM381.609 63.7344V62.2734H384.516V63.7344H381.609ZM385.984 73.9062V72.4531H388.891V73.9062H385.984ZM388.891 72.4531V68.0938H391.797V69.5469H390.344V72.4531H388.891ZM387.438 68.0938V62.2734H388.891V68.0938H387.438ZM391.797 68.0938V62.2734H393.25V68.0938H391.797ZM404.875 69.5469V63.7344H406.336V69.5469H404.875ZM399.062 71V57.9141H400.516V62.2734H404.875V63.7344H400.516V69.5469H404.875V71H399.062ZM407.797 71V62.2734H409.25V71H407.797ZM407.797 59.3672V57.9141H409.25V59.3672H407.797ZM412.156 71V69.5469H413.609V71H412.156ZM410.703 69.5469V59.3672H412.156V62.2734H413.609V63.7344H412.156V69.5469H410.703ZM420.875 71V69.5469H425.234V71H420.875ZM419.422 69.5469V63.7344H420.875V69.5469H419.422ZM425.234 69.5469V63.7344H426.695V69.5469H425.234ZM420.875 63.7344V62.2734H425.234V63.7344H420.875ZM428.156 71V59.3672H429.609V62.2734H431.062V63.7344H429.609V71H428.156ZM429.609 59.3672V57.9141H431.062V59.3672H429.609ZM120.461 86.5469V83.6406H121.914V86.5469H120.461ZM121.914 88V86.5469H126.273V83.6406H121.914V82.1875H126.273V80.7344H127.734V88H121.914ZM121.914 80.7344V79.2734H126.273V80.7344H121.914ZM135.008 88V86.5469H137.914V88H135.008ZM133.555 86.5469V79.2734H135.008V86.5469H133.555ZM139.367 88V86.5469H137.914V85.0938H139.367V79.2734H140.828V88H139.367ZM142.289 88V79.2734H143.742V88H142.289ZM142.289 76.3672V74.9141H143.742V76.3672H142.289ZM145.195 88V85.0938H146.648V88H145.195ZM146.648 85.0938V82.1875H148.102V85.0938H146.648ZM148.102 82.1875V79.2734H149.555V82.1875H148.102ZM149.555 79.2734V74.9141H151.008V79.2734H149.555ZM153.914 88V86.5469H156.82V88H153.914ZM152.461 86.5469V79.2734H153.914V86.5469H152.461ZM158.273 88V86.5469H156.82V85.0938H158.273V79.2734H159.734V88H158.273ZM161.195 88V85.0938H162.648V88H161.195ZM165.555 88V85.0938H167.008V88H165.555ZM162.648 85.0938V82.1875H165.555V85.0938H162.648ZM161.195 82.1875V79.2734H162.648V82.1875H161.195ZM165.555 82.1875V79.2734H167.008V82.1875H165.555ZM172.82 86.5469V80.7344H174.273V86.5469H172.82ZM174.273 88V86.5469H178.633V80.7344H174.273V79.2734H178.633V74.9141H180.094V88H174.273ZM183.008 88V86.5469H187.367V88H183.008ZM187.367 86.5469V85.0938H188.828V86.5469H187.367ZM181.555 86.5469V80.7344H183.008V82.1875H187.367V80.7344H188.828V83.6406H183.008V86.5469H181.555ZM183.008 80.7344V79.2734H187.367V80.7344H183.008ZM191.742 88V86.5469H194.648V88H191.742ZM190.289 86.5469V85.0938H191.742V86.5469H190.289ZM194.648 86.5469V85.0938H196.102V86.5469H194.648ZM193.195 85.0938V83.6406H194.648V85.0938H193.195ZM191.742 83.6406V82.1875H193.195V83.6406H191.742ZM190.289 82.1875V80.7344H191.742V82.1875H190.289ZM194.648 82.1875V80.7344H196.102V82.1875H194.648ZM191.742 80.7344V79.2734H194.648V80.7344H191.742ZM197.555 88V79.2734H199.008V88H197.555ZM197.555 76.3672V74.9141H199.008V76.3672H197.555ZM200.461 90.9062V89.4531H206.273V90.9062H200.461ZM200.461 86.5469V80.7344H201.914V86.5469H200.461ZM206.273 89.4531V88H201.914V86.5469H206.273V80.7344H201.914V79.2734H207.734V89.4531H206.273ZM215.008 88V80.7344H216.469V88H215.008ZM209.195 88V79.2734H210.648V80.7344H212.102V82.1875H210.648V88H209.195ZM212.102 80.7344V79.2734H215.008V80.7344H212.102ZM219.383 88V86.5469H223.742V88H219.383ZM223.742 86.5469V85.0938H225.203V86.5469H223.742ZM217.93 86.5469V80.7344H219.383V82.1875H223.742V80.7344H225.203V83.6406H219.383V86.5469H217.93ZM219.383 80.7344V79.2734H223.742V80.7344H219.383ZM226.664 88V79.2734H229.57V80.7344H228.117V88H226.664ZM231.023 89.4531V88H232.477V89.4531H231.023ZM232.477 88V86.5469H233.93V88H232.477ZM244.102 88V80.7344H245.555V88H244.102ZM248.469 88V80.7344H249.922V88H248.469ZM239.742 88V79.2734H244.102V80.7344H241.195V88H239.742ZM245.555 80.7344V79.2734H248.469V80.7344H245.555ZM252.836 88V86.5469H255.742V88H252.836ZM251.383 86.5469V79.2734H252.836V86.5469H251.383ZM257.195 88V86.5469H255.742V85.0938H257.195V79.2734H258.656V88H257.195ZM261.57 88V86.5469H264.477V88H261.57ZM260.117 86.5469V85.0938H261.57V86.5469H260.117ZM264.477 86.5469V85.0938H265.93V86.5469H264.477ZM263.023 85.0938V83.6406H264.477V85.0938H263.023ZM261.57 83.6406V82.1875H263.023V83.6406H261.57ZM260.117 82.1875V80.7344H261.57V82.1875H260.117ZM264.477 82.1875V80.7344H265.93V82.1875H264.477ZM261.57 80.7344V79.2734H264.477V80.7344H261.57ZM267.383 88V79.2734H268.836V88H267.383ZM267.383 76.3672V74.9141H268.836V76.3672H267.383ZM271.742 88V86.5469H276.102V88H271.742ZM276.102 86.5469V85.0938H277.562V86.5469H276.102ZM270.289 86.5469V80.7344H271.742V86.5469H270.289ZM276.102 82.1875V80.7344H277.562V82.1875H276.102ZM271.742 80.7344V79.2734H276.102V80.7344H271.742ZM283.383 86.5469V83.6406H284.836V86.5469H283.383ZM284.836 88V86.5469H289.195V83.6406H284.836V82.1875H289.195V80.7344H290.656V88H284.836ZM284.836 80.7344V79.2734H289.195V80.7344H284.836ZM297.93 88V80.7344H299.391V88H297.93ZM292.117 88V79.2734H293.57V80.7344H295.023V82.1875H293.57V88H292.117ZM295.023 80.7344V79.2734H297.93V80.7344H295.023ZM300.852 86.5469V80.7344H302.305V86.5469H300.852ZM302.305 88V86.5469H306.664V80.7344H302.305V79.2734H306.664V74.9141H308.125V88H302.305ZM315.398 88V86.5469H316.852V88H315.398ZM313.945 86.5469V76.3672H315.398V79.2734H316.852V80.7344H315.398V86.5469H313.945ZM319.758 88V86.5469H324.117V88H319.758ZM324.117 86.5469V85.0938H325.578V86.5469H324.117ZM318.305 86.5469V80.7344H319.758V82.1875H324.117V80.7344H325.578V83.6406H319.758V86.5469H318.305ZM319.758 80.7344V79.2734H324.117V80.7344H319.758ZM328.492 88V86.5469H332.852V88H328.492ZM332.852 86.5469V85.0938H334.312V86.5469H332.852ZM327.039 86.5469V80.7344H328.492V86.5469H327.039ZM332.852 82.1875V80.7344H334.312V82.1875H332.852ZM328.492 80.7344V79.2734H332.852V80.7344H328.492ZM341.586 88V80.7344H343.047V88H341.586ZM338.68 80.7344V79.2734H341.586V80.7344H338.68ZM335.773 88V74.9141H337.227V80.7344H338.68V82.1875H337.227V88H335.773ZM350.32 88V80.7344H351.781V88H350.32ZM344.508 88V79.2734H345.961V80.7344H347.414V82.1875H345.961V88H344.508ZM347.414 80.7344V79.2734H350.32V80.7344H347.414ZM354.695 88V86.5469H359.055V88H354.695ZM353.242 86.5469V80.7344H354.695V86.5469H353.242ZM359.055 86.5469V80.7344H360.516V86.5469H359.055ZM354.695 80.7344V79.2734H359.055V80.7344H354.695ZM361.977 88V74.9141H363.43V88H361.977ZM366.336 88V86.5469H370.695V88H366.336ZM364.883 86.5469V80.7344H366.336V86.5469H364.883ZM370.695 86.5469V80.7344H372.156V86.5469H370.695ZM366.336 80.7344V79.2734H370.695V80.7344H366.336ZM373.617 90.9062V89.4531H379.43V90.9062H373.617ZM373.617 86.5469V80.7344H375.07V86.5469H373.617ZM379.43 89.4531V88H375.07V86.5469H379.43V80.7344H375.07V79.2734H380.891V89.4531H379.43ZM380.898 90.9062V89.4531H383.805V90.9062H380.898ZM383.805 89.4531V85.0938H386.711V86.5469H385.258V89.4531H383.805ZM382.352 85.0938V79.2734H383.805V85.0938H382.352ZM386.711 85.0938V79.2734H388.164V85.0938H386.711ZM393.977 88V74.9141H395.43V88H393.977ZM398.336 88V86.5469H402.695V88H398.336ZM396.883 86.5469V80.7344H398.336V86.5469H396.883ZM402.695 86.5469V80.7344H404.156V86.5469H402.695ZM398.336 80.7344V79.2734H402.695V80.7344H398.336ZM408.523 88V85.0938H409.977V88H408.523ZM407.07 85.0938V82.1875H408.523V85.0938H407.07ZM409.977 85.0938V82.1875H411.43V85.0938H409.977ZM405.617 82.1875V79.2734H407.07V82.1875H405.617ZM411.43 82.1875V79.2734H412.891V82.1875H411.43ZM415.805 88V86.5469H420.164V88H415.805ZM420.164 86.5469V85.0938H421.625V86.5469H420.164ZM414.352 86.5469V80.7344H415.805V82.1875H420.164V80.7344H421.625V83.6406H415.805V86.5469H414.352ZM415.805 80.7344V79.2734H420.164V80.7344H415.805ZM423.086 88V79.2734H425.992V80.7344H424.539V88H423.086ZM212.844 103.547V100.641H214.297V103.547H212.844ZM214.297 105V103.547H218.656V100.641H214.297V99.1875H218.656V97.7344H220.117V105H214.297ZM214.297 97.7344V96.2734H218.656V97.7344H214.297ZM227.391 105V97.7344H228.852V105H227.391ZM221.578 105V96.2734H223.031V97.7344H224.484V99.1875H223.031V105H221.578ZM224.484 97.7344V96.2734H227.391V97.7344H224.484ZM230.312 103.547V97.7344H231.766V103.547H230.312ZM231.766 105V103.547H236.125V97.7344H231.766V96.2734H236.125V91.9141H237.586V105H231.766ZM243.406 103.547V100.641H244.859V103.547H243.406ZM244.859 105V103.547H249.219V100.641H244.859V99.1875H249.219V97.7344H250.68V105H244.859ZM244.859 97.7344V96.2734H249.219V97.7344H244.859ZM257.953 105V103.547H262.312V105H257.953ZM262.312 103.547V102.094H263.773V103.547H262.312ZM256.5 103.547V97.7344H257.953V103.547H256.5ZM262.312 99.1875V97.7344H263.773V99.1875H262.312ZM257.953 97.7344V96.2734H262.312V97.7344H257.953ZM265.234 103.547V100.641H266.688V103.547H265.234ZM266.688 105V103.547H271.047V100.641H266.688V99.1875H271.047V97.7344H272.508V105H266.688ZM266.688 97.7344V96.2734H271.047V97.7344H266.688ZM275.422 105V103.547H276.875V105H275.422ZM273.969 103.547V93.3672H275.422V96.2734H276.875V97.7344H275.422V103.547H273.969ZM288.5 103.547V97.7344H289.961V103.547H288.5ZM282.688 107.906V96.2734H288.5V97.7344H284.141V103.547H288.5V105H284.141V107.906H282.688ZM292.875 105V103.547H297.234V105H292.875ZM297.234 103.547V102.094H298.695V103.547H297.234ZM291.422 103.547V97.7344H292.875V99.1875H297.234V97.7344H298.695V100.641H292.875V103.547H291.422ZM292.875 97.7344V96.2734H297.234V97.7344H292.875ZM300.156 105V96.2734H303.062V97.7344H301.609V105H300.156ZM305.969 105V103.547H308.875V105H305.969ZM304.516 103.547V102.094H305.969V103.547H304.516ZM308.875 103.547V102.094H310.328V103.547H308.875ZM307.422 102.094V100.641H308.875V102.094H307.422ZM305.969 100.641V99.1875H307.422V100.641H305.969ZM304.516 99.1875V97.7344H305.969V99.1875H304.516ZM308.875 99.1875V97.7344H310.328V99.1875H308.875ZM305.969 97.7344V96.2734H308.875V97.7344H305.969ZM313.234 105V103.547H317.594V105H313.234ZM311.781 103.547V97.7344H313.234V103.547H311.781ZM317.594 103.547V97.7344H319.055V103.547H317.594ZM313.234 97.7344V96.2734H317.594V97.7344H313.234ZM326.328 105V97.7344H327.789V105H326.328ZM320.516 105V96.2734H321.969V97.7344H323.422V99.1875H321.969V105H320.516ZM323.422 97.7344V96.2734H326.328V97.7344H323.422ZM329.25 105V103.547H330.703V105H329.25Z" fill="white"/>
<path d="M220.471 171V166.005H221.475V171H220.471ZM218.473 166.005V165H220.471V166.005H218.473ZM216.475 171V162.003H217.474V166.005H218.473V167.004H217.474V171H216.475ZM223.479 171V170.001H226.476V171H223.479ZM222.479 170.001V166.005H223.479V170.001H222.479ZM226.476 170.001V166.005H227.48V170.001H226.476ZM223.479 166.005V165H226.476V166.005H223.479ZM228.484 171V169.002H229.483V171H228.484ZM231.481 171V169.002H232.48V171H231.481ZM229.483 169.002V167.004H231.481V169.002H229.483ZM228.484 167.004V165H229.483V167.004H228.484ZM231.481 167.004V165H232.48V167.004H231.481ZM237.476 171V166.005H238.48V171H237.476ZM235.478 166.005V165H237.476V166.005H235.478ZM233.479 171V162.003H234.479V166.005H235.478V167.004H234.479V171H233.479ZM239.484 170.001V168.003H240.483V170.001H239.484ZM240.483 171V170.001H243.48V168.003H240.483V167.004H243.48V166.005H244.485V171H240.483ZM240.483 166.005V165H243.48V166.005H240.483ZM246.488 171V170.001H248.486V171H246.488ZM245.489 170.001V165H246.488V170.001H245.489ZM249.485 171V170.001H248.486V169.002H249.485V165H250.49V171H249.485ZM251.494 171V165H253.492V166.005H252.493V171H251.494ZM254.491 170.001V168.003H255.49V170.001H254.491ZM255.49 171V170.001H258.487V168.003H255.49V167.004H258.487V166.005H259.492V171H255.49ZM255.49 166.005V165H258.487V166.005H255.49ZM264.492 171V166.005H265.497V171H264.492ZM260.496 171V165H261.495V166.005H262.494V167.004H261.495V171H260.496ZM262.494 166.005V165H264.492V166.005H262.494ZM267.5 171V170.001H270.497V171H267.5ZM266.501 170.001V169.002H267.5V170.001H266.501ZM266.501 166.005V163.002H267.5V166.005H266.501ZM270.497 170.001V167.004H267.5V166.005H270.497V163.002H271.501V170.001H270.497ZM267.5 163.002V162.003H270.497V163.002H267.5ZM275.503 171.999V171H280.503V171.999H275.503ZM273.505 171V169.002H274.504V170.001H275.503V171H273.505ZM276.502 169.002V168.003H278.505V169.002H276.502ZM275.503 168.003V166.005H276.502V168.003H275.503ZM272.506 169.002V165H273.505V169.002H272.506ZM278.505 168.003V166.005H276.502V165H279.504V168.003H278.505ZM279.504 169.002V168.003H281.502V165H282.507V169.002H279.504ZM273.505 165V163.002H275.503V164.001H274.504V165H273.505ZM280.503 165V164.001H279.504V163.002H281.502V165H280.503ZM275.503 163.002V162.003H279.504V163.002H275.503ZM283.506 172.998V171.999H287.502V172.998H283.506ZM283.506 170.001V166.005H284.505V170.001H283.506ZM287.502 171.999V171H284.505V170.001H287.502V166.005H284.505V165H288.506V171.999H287.502ZM292.508 171V166.005H293.507V171H292.508ZM295.51 171V166.005H296.509V171H295.51ZM289.511 171V165H292.508V166.005H290.51V171H289.511ZM293.507 166.005V165H295.51V166.005H293.507ZM297.514 170.001V168.003H298.513V170.001H297.514ZM298.513 171V170.001H301.51V168.003H298.513V167.004H301.51V166.005H302.514V171H298.513ZM298.513 166.005V165H301.51V166.005H298.513ZM303.519 171V165H304.518V171H303.519ZM303.519 163.002V162.003H304.518V163.002H303.519ZM305.517 171V162.003H306.516V171H305.517ZM307.515 171V170.001H308.514V171H307.515ZM312.51 171V170.001H315.507V171H312.51ZM315.507 170.001V169.002H316.511V170.001H315.507ZM311.511 170.001V166.005H312.51V170.001H311.511ZM315.507 167.004V166.005H316.511V167.004H315.507ZM312.51 166.005V165H315.507V166.005H312.51ZM318.515 171V170.001H321.512V171H318.515ZM317.516 170.001V166.005H318.515V170.001H317.516ZM321.512 170.001V166.005H322.516V170.001H321.512ZM318.515 166.005V165H321.512V166.005H318.515ZM326.518 171V166.005H327.517V171H326.518ZM329.52 171V166.005H330.519V171H329.52ZM323.521 171V165H326.518V166.005H324.52V171H323.521ZM327.517 166.005V165H329.52V166.005H327.517Z" fill="white"/>
</svg>
